<?xml version="1.0" encoding="utf-8"?>
<svg viewBox="0 0 44 44" width="44" height="44" xmlns="http://www.w3.org/2000/svg" xmlns:xlink="http://www.w3.org/1999/xlink">
  <style>:root>svg{display:none}:root>svg:target{display:block}</style>

  <svg id="open" width="44" height="44" viewBox="0 0 44 44" fill="none" xmlns="http://www.w3.org/2000/svg">
    <path fill-rule="evenodd" clip-rule="evenodd" d="M36 14L8 14V11L36 11V14Z" fill="black"/>
    <path fill-rule="evenodd" clip-rule="evenodd" d="M36 24L8 24V21L36 21V24Z" fill="black"/>
    <path fill-rule="evenodd" clip-rule="evenodd" d="M36 34L8 34V31L36 31V34Z" fill="black"/>
  </svg>

<!--  <svg id="close" width="44" height="44" viewBox="0 0 44 44" fill="none" xmlns="http://www.w3.org/2000/svg">-->
<!--    <path fill-rule="evenodd" clip-rule="evenodd" d="M15.1213 13L13 15.1213L19.7177 21.839L13.0003 28.5563L15.1216 30.6777L21.839 23.9603L28.5563 30.6777L30.6777 28.5563L23.9603 21.839L30.678 15.1213L28.5566 13L21.839 19.7177L15.1213 13Z" fill="black"/>-->
<!--  </svg>-->

  <svg id="close" width="32" height="32" viewBox="0 0 32 32" fill="none" xmlns="http://www.w3.org/2000/svg">
    <rect x="7.16016" y="9.28249" width="3" height="22" transform="rotate(-45 7.16016 9.28249)" fill="black"/>
    <rect x="22.7168" y="7.16117" width="3" height="22" transform="rotate(45 22.7168 7.16117)" fill="black"/>
  </svg>
</svg>
